<?xml version="1.0" encoding="utf-8"?>
<!-- Generator: Adobe Illustrator 19.2.0, SVG Export Plug-In . SVG Version: 6.00 Build 0)  -->
<svg version="1.1" id="Layer_1" xmlns="http://www.w3.org/2000/svg" xmlns:xlink="http://www.w3.org/1999/xlink" x="0px" y="0px"
	 viewBox="0 0 36 36" style="enable-background:new 0 0 36 36;" xml:space="preserve">
<style type="text/css">
	.st0{fill:#FFFFFF;}
</style>
<g>
	<g>
		<g>
			<path class="st0" d="M15.4,35.9c-5.5-0.9-9.8-3.6-13-8.2C3,27.5,3.5,27.3,4,27.2c2.5-0.6,4.9-1.6,7.3-2.6c0.5-0.2,0.8-0.5,0.9-1
				c0.3-0.8,0.3-1.4-0.2-2.2c-0.7-1-1-2.3-1.3-3.5c-0.1-0.2-0.3-0.4-0.4-0.6c-0.1-0.2-0.3-0.3-0.4-0.5c-0.7-1.3-1.1-2.7-1.2-4.1
				c0-0.8,0.2-1.1,1.1-1.3c-0.1-0.5-0.2-0.9-0.3-1.4c-0.4-3.6,1.2-6.3,4-8.4C15,0.6,16.8-0.1,18.7,0C21,0.1,23,1,24.4,2.9
				c0.1,0.1,0.2,0.2,0.3,0.3c1.6,0.5,2.2,1.8,2.4,3.3c0.3,1.6,0.1,3.2-0.2,4.8c-0.1,0.4-0.1,0.7,0.2,1.1c0.5,0.5,0.3,1.3,0.2,1.9
				c-0.3,1-0.6,2.1-1,3.1c-0.2,0.6-0.5,0.7-1.1,0.7c-0.3,1.5-0.8,2.9-1.6,4.1c-0.1,0.2-0.1,0.4-0.1,0.6c0.2,1.2,0.6,2.1,2,2.5
				c2.3,0.7,4.6,1.5,6.9,2.2c0.4,0.1,0.8,0.3,1.2,0.4c-3.2,4.6-7.5,7.3-13,8.2c-0.4-1.1-0.8-2.1-1.2-3.1c-0.5-0.9-0.6-1.7,0.1-2.6
				c0.3-0.3,0.4-0.8,0.5-1.2c0.2-0.9-0.2-1.5-1-1.8c-0.7-0.2-1.4-0.2-2.1,0c-0.8,0.3-1.3,1-1,1.8c0.2,0.7,0.7,1.4,1,2.1
				c0.1,0.2,0.1,0.4,0.1,0.5C16.5,33,15.9,34.4,15.4,35.9z"/>
		</g>
	</g>
</g>
</svg>
