<?xml version="1.0" encoding="utf-8"?>
<!-- Generator: Adobe Illustrator 19.2.0, SVG Export Plug-In . SVG Version: 6.00 Build 0)  -->
<svg version="1.1" id="Layer_1" xmlns="http://www.w3.org/2000/svg" xmlns:xlink="http://www.w3.org/1999/xlink" x="0px" y="0px"
	 viewBox="0 0 36 36" style="enable-background:new 0 0 36 36;" xml:space="preserve">
<style type="text/css">
	.st0{fill:#FFFFFF;}
</style>
<g>
	<g>
		<g>
			<path class="st0" d="M13.4,32.4c1.8-0.7,2.6-1.3,3.1-2.3c-0.8,0.2-1.6,0.5-2.4,0.6c-0.5,0.1-1,0.1-1.5,0c-0.3,0-0.7-0.2-0.9-0.4
				c-3.9-4-7.7-8-11.6-12.1c0,0-0.1-0.1-0.1-0.2c0.8,0,1.5,0.1,2.2,0c1.2-0.2,2.2-0.8,3-1.6c2.1-2.1,4.3-4.3,6.4-6.4
				c0.1-0.1,0.2-0.3,0.3-0.4c5.3,5.3,10.4,10.4,15.6,15.6c-0.6,0.6-1.2,1.3-1.9,1.9c-2.2,2.2-4.4,4.4-6.6,6.5
				c-0.8,0.8-1.7,1.3-2.8,1.1c-0.4-0.1-0.7-0.3-1-0.5C14.5,33.7,14,33.1,13.4,32.4z"/>
			<path class="st0" d="M28.6,24.3C23.4,19,18.2,13.9,13,8.7c0.7-0.7,1.4-1.4,2.2-2c1-0.7,2.5-0.6,3.5,0.3c0.9,0.8,1.7,1.7,2.6,2.6
				c0.7,0.7,1.5,1.1,2.5,1c0.7-0.1,1.3-0.3,1.7-1c0.8-1.3,1.5-2.7,2.3-3.9s1.7-2.3,2.6-3.4c1.2-1.3,3.1-1.3,4.4-0.2
				c1.4,1.3,1.5,3.1,0.3,4.5c-1,1.1-2.2,2-3.5,2.8c-1.2,0.7-2.4,1.4-3.5,2.1c-1.8,1.1-2,2.9-0.5,4.4c0.9,0.9,1.8,1.7,2.6,2.6
				c1.1,1.2,1,2.9-0.1,4C29.6,23.3,29.1,23.8,28.6,24.3z M32.4,6.1c0.6,0,1.1-0.5,1.1-1.1S33,3.9,32.4,3.9S31.1,4.4,31.1,5
				C31.2,5.5,31.7,6.1,32.4,6.1z"/>
		</g>
	</g>
</g>
</svg>
