<?xml version="1.0" encoding="utf-8"?>
<!-- Generator: Adobe Illustrator 19.2.0, SVG Export Plug-In . SVG Version: 6.00 Build 0)  -->
<svg version="1.1" id="Layer_1" xmlns="http://www.w3.org/2000/svg" xmlns:xlink="http://www.w3.org/1999/xlink" x="0px" y="0px"
	 viewBox="0 0 36 36" style="enable-background:new 0 0 36 36;" xml:space="preserve">
<style type="text/css">
	.st0{fill:#FFFFFF;}
</style>
<path class="st0" d="M4.5,31.5c-1.3-1.3-2.7-2.7-4-4c-0.5-0.5-0.6-1-0.2-1.4c0.4-0.4,0.9-0.4,1.4,0.1c2.7,2.7,5.4,5.4,8.1,8.1
	c0.4,0.4,0.6,0.8,0.2,1.2c-0.2,0.2-0.6,0.4-0.9,0.4c-0.2,0-0.5-0.2-0.7-0.4C7.1,34.2,5.8,32.9,4.5,31.5z M4,23.9
	c-0.5-0.5-0.9-0.5-1.3-0.2c-0.4,0.4-0.4,0.9,0.1,1.4c2.7,2.7,5.4,5.4,8.1,8.1c0.2,0.2,0.5,0.4,0.6,0.3c0.3-0.1,0.7-0.2,0.9-0.5
	c0.3-0.4,0.1-0.8-0.2-1.1C10.8,30.7,9.4,29.3,8,28C6.7,26.6,5.3,25.3,4,23.9z M4,35.7c0.4,0.4,0.9,0.4,1.3,0
	c0.4-0.4,0.3-0.9-0.1-1.3C4,33.2,2.8,32,1.6,30.8c-0.4-0.4-1-0.5-1.4-0.1c-0.4,0.4-0.3,0.9,0.1,1.4c0.6,0.6,1.2,1.2,1.8,1.8
	C2.8,34.5,3.4,35.1,4,35.7z M25,24.8c-1.3,0.1-2.6,0.2-3.9,0.3c-1.4,0.1-2.4,0.8-3.3,1.8c-0.9,1.1-1.8,2.1-2.7,3.2
	c-0.5,0.6-1,0.6-1.6,0c-1.3-1.3-2.5-2.5-3.8-3.8c-1.3-1.3-2.5-2.5-3.8-3.8c-0.7-0.7-0.6-1.2,0.2-1.8c1.4-1.2,2.7-2.4,4.1-3.6
	c0.6-0.5,0.7-1.3,0.7-2c0.2-1.9,0.3-3.8,0.5-5.7c0.2-2.1,0.9-4.1,2.5-5.7c2.2-2.2,4.9-3.5,8-3.7c4.3-0.4,7.9,1.1,10.9,4.2
	c4,4.3,4.4,11.4,1,16.1C31.5,23.5,28.5,24.6,25,24.8z M31.7,14.2c0-0.6-0.4-0.9-1.1-0.9c-3,0-6,0-9,0c-0.2,0-0.4,0-0.6,0
	c0-2.1,0.1-4.1,0.1-6.2c0-0.8-0.2-1.2-0.8-1.2c-0.6,0-0.9,0.4-0.9,1.2c-0.1,2.3-0.1,4.6-0.2,6.8c0,0.9,0.3,1.2,1.1,1.2
	c3.4,0,6.9,0,10.3,0C31.3,15.1,31.7,14.7,31.7,14.2z"/>
</svg>
