<?xml version="1.0" encoding="utf-8"?>
<!-- Generator: Adobe Illustrator 19.2.0, SVG Export Plug-In . SVG Version: 6.00 Build 0)  -->
<svg version="1.1" id="Layer_1" xmlns="http://www.w3.org/2000/svg" xmlns:xlink="http://www.w3.org/1999/xlink" x="0px" y="0px"
	 viewBox="0 0 36 36" style="enable-background:new 0 0 36 36;" xml:space="preserve">
<style type="text/css">
	.st0{fill:#FFFFFF;}
</style>
<g>
	<g>
		<path class="st0" d="M35.9,6.5L31,11.4l-4.9-1.6l-1.6-4.9L29.4,0h-3.8c-1.8,0-3.5,0.7-4.8,2c-1.8,1.8-2.4,4.5-1.6,6.9l0.3,1
			L1.4,28.1C0.5,29,0,30.1,0,31.4C0,33.9,2.1,36,4.6,36c1.2,0,2.4-0.5,3.3-1.4l18.2-18.3l1,0.3c2.4,0.8,5.1,0.2,6.9-1.6
			c1.3-1.3,2-3,2-4.8L35.9,6.5z M6.5,32.7c-0.9,0.9-2.4,0.9-3.3,0c-0.9-0.9-0.9-2.4,0-3.3s2.4-0.9,3.3,0C7.4,30.4,7.4,31.8,6.5,32.7
			z"/>
	</g>
</g>
</svg>
