<?xml version="1.0" encoding="utf-8"?>
<!-- Generator: Adobe Illustrator 19.2.0, SVG Export Plug-In . SVG Version: 6.00 Build 0)  -->
<svg version="1.1" id="Layer_1" xmlns="http://www.w3.org/2000/svg" xmlns:xlink="http://www.w3.org/1999/xlink" x="0px" y="0px"
	 viewBox="0 0 36 36" style="enable-background:new 0 0 36 36;" xml:space="preserve">
<style type="text/css">
	.st0{fill:#FFFFFF;}
</style>
<path class="st0" d="M31.5,0h-27C2,0,0,2,0,4.5v18C0,25,2,27,4.5,27H18v9l9-9h4.5c2.5,0,4.5-2,4.5-4.5v-18C36,2,34,0,31.5,0z
	 M9,15.8c-1.2,0-2.3-1-2.3-2.3s1-2.3,2.3-2.3s2.3,1,2.3,2.3S10.2,15.8,9,15.8z M15.8,13.5c0-1.2,1-2.3,2.3-2.3s2.3,1,2.3,2.3
	s-1,2.3-2.3,2.3S15.8,14.7,15.8,13.5z M27,15.8c-1.2,0-2.3-1-2.3-2.3s1-2.3,2.3-2.3s2.3,1,2.3,2.3S28.2,15.8,27,15.8z"/>
</svg>
