<?xml version="1.0" encoding="utf-8"?>
<!-- Generator: Adobe Illustrator 19.2.1, SVG Export Plug-In . SVG Version: 6.00 Build 0)  -->
<svg version="1.1" id="Layer_1" xmlns="http://www.w3.org/2000/svg" xmlns:xlink="http://www.w3.org/1999/xlink" x="0px" y="0px"
	 viewBox="0 0 182 150" style="enable-background:new 0 0 182 150;" xml:space="preserve">
<style type="text/css">
	.st0{fill:#FFFFFF;}
</style>
<g>
	<g>
		<g>
			<polygon class="st0" points="73.4,16.5 161.1,104.2 126,104.2 90.9,69.1 55.8,104.2 20.7,104.2 73.4,51.6 38.3,16.5 			"/>
		</g>
		<g>
			<polygon class="st0" points="143.6,16.5 90.9,16.5 117.2,42.8 			"/>
		</g>
		<g>
			<polygon class="st0" points="73.4,104.2 108.5,104.2 90.9,86.7 			"/>
		</g>
	</g>
</g>
<g>
	<path class="st0" d="M31.2,117.4c0,0.3-0.3,0.5-0.6,0.5H26v16.3c0,0.3-0.2,0.6-0.5,0.6h-2.8c-0.2,0-0.5-0.3-0.5-0.6v-16.3h-4.7
		c-0.3,0-0.5-0.2-0.5-0.5v-2.8c0-0.3,0.2-0.5,0.5-0.5h13c0.3,0,0.6,0.2,0.6,0.5V117.4z"/>
	<path class="st0" d="M47.3,134.3c0,0.3-0.2,0.5-0.5,0.5H33.7c-0.3,0-0.5-0.2-0.5-0.5v-19.7c0-0.3,0.2-0.5,0.5-0.5h12.6
		c0.3,0,0.5,0.2,0.5,0.5v2.8c0,0.3-0.2,0.5-0.5,0.5H37v4.7h8.9c0.3,0,0.5,0.2,0.5,0.5v2.8c0,0.3-0.2,0.5-0.5,0.5H37v4.7h9.9
		c0.2,0,0.5,0.2,0.5,0.5V134.3z"/>
	<path class="st0" d="M63.9,129.6c0,0.3-0.2,0.5-0.5,0.5h-0.6l1,4l0,0.1v0c0,0.3-0.2,0.5-0.5,0.5h-2.9c-0.2,0-0.4-0.1-0.4-0.3l0-0.1
		l-1.1-4.3h-4.1l-1.1,4.3c0,0,0,0,0,0c0,0.2-0.2,0.3-0.4,0.3h-2.9c-0.2,0-0.5-0.2-0.5-0.5v-0.1c0,0,0,0,0,0l4.9-19.5l0-0.1
		c0.1-0.2,0.2-0.3,0.4-0.3h3.1c0.2,0,0.4,0.1,0.4,0.3l0,0.1l2.9,11.7h1.6c0.3,0,0.5,0.2,0.5,0.5V129.6z M58,126.3l-1.1-4.4l-1.1,4.4
		H58z"/>
	<path class="st0" d="M66.8,114.2l7.8,7.8l7.8-7.8v20.1c0,0.3-0.2,0.5-0.5,0.5h-2.8c-0.3,0-0.5-0.2-0.5-0.5v-11.2l-4.2,4.2l-4.2-4.2
		v11.2c0,0.3-0.2,0.5-0.5,0.5h-2.8c-0.2,0-0.5-0.2-0.5-0.5V114.2z"/>
	<path class="st0" d="M99.4,117.4c0,0.3-0.2,0.5-0.5,0.5h-7.7l3.9,4.7h1.3c0.3,0,0.6,0.2,0.6,0.5v2.8c0,0.3-0.2,0.5-0.6,0.5h-7.4
		v7.9c0,0.3-0.2,0.5-0.5,0.5h-2.8c-0.3,0-0.5-0.2-0.5-0.5v-11.7h4.9l-4.9-5.9v-2c0-0.3,0.2-0.5,0.5-0.5h13.1c0.2,0,0.5,0.2,0.5,0.5
		V117.4z"/>
	<path class="st0" d="M113.3,134.3c0,0.3-0.3,0.5-0.6,0.5h-10.2c-0.3,0-0.5-0.2-0.5-0.5v-19.6c0-0.3,0.2-0.6,0.5-0.6h2.8
		c0.3,0,0.5,0.3,0.5,0.6V131h6.9c0.3,0,0.6,0.2,0.6,0.5V134.3z"/>
	<path class="st0" d="M123.2,117.9V131h3.1c0.3,0,0.6,0.2,0.6,0.5v2.8c0,0.3-0.3,0.5-0.6,0.5h-10.2c-0.3,0-0.5-0.2-0.5-0.5v-2.8
		c0-0.3,0.2-0.5,0.5-0.5h3.3v-13.1h-3.3c-0.3,0-0.5-0.2-0.5-0.5v-2.8c0-0.3,0.2-0.5,0.5-0.5h10.2c0.3,0,0.6,0.2,0.6,0.5v2.8
		c0,0.3-0.3,0.5-0.6,0.5H123.2z"/>
	<path class="st0" d="M143.9,134.9l-10.3-11.3v10.6c0,0.3-0.2,0.5-0.5,0.5h-2.8c-0.3,0-0.5-0.2-0.5-0.5V114l10.3,11.3v-10.6
		c0-0.3,0.2-0.5,0.5-0.5h2.8c0.2,0,0.5,0.2,0.5,0.5V134.9z"/>
	<path class="st0" d="M163.8,123.1v8.3c0,0.1,0,0.3-0.1,0.3v0c-0.3,0.3-0.7,0.6-1.1,1c-0.8,0.6-1.6,1.1-2.5,1.4
		c-4.2,1.6-9.1,0.4-11.9-3.4c-3.5-4.5-2.6-11,1.9-14.4c3.8-2.9,9-2.8,12.6,0.1l0.1,0c0,0,0,0,0,0.1c0.2,0.2,0.1,0.5-0.1,0.7
		l-2.3,1.8c-0.1,0.1-0.4,0.1-0.5,0c-2.3-1.5-5.3-1.5-7.6,0.3c-2.9,2.2-3.4,6.3-1.2,9.2c2.1,2.8,6.1,3.4,9,1.4v-3.5h-3.3
		c-0.3,0-0.5-0.2-0.5-0.5v-2.8c0-0.3,0.2-0.5,0.5-0.5h6.6c0.1,0,0.2,0,0.3,0.1C163.8,122.8,163.8,122.9,163.8,123.1z"/>
</g>
</svg>
