<?xml version="1.0" encoding="utf-8"?>
<!-- Generator: Adobe Illustrator 19.2.1, SVG Export Plug-In . SVG Version: 6.00 Build 0)  -->
<svg version="1.1" id="Layer_1" xmlns="http://www.w3.org/2000/svg" xmlns:xlink="http://www.w3.org/1999/xlink" x="0px" y="0px"
	 viewBox="0 0 486 92" style="enable-background:new 0 0 486 92;" xml:space="preserve">
<style type="text/css">
	.st0{fill:#FFFFFF;}
</style>
<g>
	<g>
		<path class="st0" d="M41.9,20.6L95,73.7H73.8L52.6,52.4L31.3,73.7H10.1l31.9-31.9L20.7,20.6H41.9z M84.4,20.6H52.6l15.9,15.9
			L84.4,20.6z M41.9,73.7h21.2L52.6,63.1L41.9,73.7z"/>
		<g>
			<path class="st0" d="M132.1,29.3c0,0.7-0.7,1.2-1.5,1.2H119v41.4c0,0.8-0.5,1.5-1.2,1.5h-7.2c-0.6,0-1.2-0.7-1.2-1.5V30.5H97.6
				c-0.7,0-1.2-0.5-1.2-1.2v-7.1c0-0.7,0.6-1.2,1.2-1.2h33c0.8,0,1.5,0.5,1.5,1.2V29.3z"/>
			<path class="st0" d="M173,72.2c0,0.7-0.5,1.2-1.2,1.2h-33.3c-0.7,0-1.2-0.5-1.2-1.2v-50c0-0.7,0.5-1.2,1.2-1.2h32.1
				c0.7,0,1.2,0.5,1.2,1.2v7.1c0,0.7-0.5,1.2-1.2,1.2h-23.8v11.9h22.6c0.7,0,1.2,0.5,1.2,1.2v7.1c0,0.7-0.5,1.2-1.2,1.2h-22.6v11.9
				h25.1c0.6,0,1.2,0.6,1.2,1.2V72.2z"/>
			<path class="st0" d="M215.2,60.2c0,0.7-0.5,1.2-1.2,1.2h-1.6l2.6,10.2l0.1,0.3V72c0,0.7-0.5,1.3-1.2,1.3h-7.4
				c-0.5,0-0.9-0.4-1.1-0.9l-0.1-0.2l-2.7-10.8h-10.4l-2.7,10.9c0,0-0.1,0.1-0.1,0.1c-0.1,0.5-0.6,0.9-1.1,0.9h-7.4
				c-0.6,0-1.2-0.5-1.2-1.3v-0.2c0.1,0,0.1-0.1,0.1-0.1l12.4-49.4l0.1-0.4c0.2-0.4,0.6-0.7,1.1-0.7h8c0.5,0,0.9,0.3,1.1,0.7l0.1,0.3
				l7.4,29.8h4c0.7,0,1.2,0.5,1.2,1.2V60.2z M200.2,51.9l-2.8-11.3l-2.9,11.3H200.2z"/>
			<path class="st0" d="M222.5,21L242.4,41L262.3,21v51.1c0,0.7-0.5,1.2-1.2,1.2h-7c-0.7,0-1.2-0.5-1.2-1.2V43.6l-10.5,10.5
				l-10.5-10.5v28.5c0,0.7-0.5,1.2-1.2,1.2h-7.1c-0.6,0-1.2-0.5-1.2-1.2V21z"/>
			<path class="st0" d="M305.4,29.2c0,0.7-0.5,1.2-1.2,1.2h-19.6l9.9,11.9h3.4c0.9,0,1.5,0.5,1.5,1.2v7.1c0,0.7-0.6,1.2-1.5,1.2
				h-18.8V72c0,0.7-0.5,1.3-1.2,1.3h-7.1c-0.7,0-1.2-0.6-1.2-1.3V42.4h12.4l-12.4-15v-5.2c0-0.7,0.5-1.3,1.2-1.3h33.3
				c0.6,0,1.2,0.6,1.2,1.3V29.2z"/>
			<path class="st0" d="M340.6,72.2c0,0.7-0.7,1.2-1.5,1.2h-25.8c-0.7,0-1.2-0.5-1.2-1.2V22.4c0-0.8,0.5-1.5,1.2-1.5h7.1
				c0.7,0,1.2,0.7,1.2,1.5v41.4h17.6c0.9,0,1.5,0.6,1.5,1.2V72.2z"/>
			<path class="st0" d="M365.8,30.4v33.3h8c0.9,0,1.5,0.5,1.5,1.2v7.1c0,0.7-0.7,1.2-1.5,1.2H348c-0.7,0-1.2-0.6-1.2-1.2V65
				c0-0.7,0.5-1.2,1.2-1.2h8.3V30.4H348c-0.7,0-1.2-0.5-1.2-1.2v-7.1c0-0.7,0.5-1.2,1.2-1.2h25.8c0.9,0,1.5,0.6,1.5,1.2v7.1
				c0,0.7-0.7,1.2-1.5,1.2H365.8z"/>
			<path class="st0" d="M418.4,73.7l-26.2-28.6v27c0,0.7-0.5,1.2-1.2,1.2h-7.1c-0.7,0-1.2-0.6-1.2-1.2V20.6l26.2,28.6v-27
				c0-0.7,0.5-1.2,1.2-1.2h7.2c0.6,0,1.2,0.5,1.2,1.2V73.7z"/>
			<path class="st0" d="M469,43.6v21c0,0.4-0.1,0.7-0.4,0.9v0.1c-0.9,0.9-1.8,1.6-2.7,2.4c-2,1.5-4.1,2.7-6.4,3.6
				c-10.6,4.1-23.1,0.9-30.3-8.5c-8.8-11.5-6.6-27.9,4.9-36.7c9.7-7.4,23-7,32.1,0.3l0.2,0.1c0.1,0.1,0.1,0.1,0.1,0.2
				c0.4,0.5,0.4,1.3-0.2,1.7l-5.9,4.5c-0.4,0.3-0.9,0.3-1.3,0.1c-5.7-3.8-13.5-3.7-19.3,0.7c-7.3,5.5-8.7,16-3.1,23.3
				c5.4,7.1,15.5,8.7,22.7,3.6v-9h-8.4c-0.7,0-1.2-0.5-1.2-1.2v-7.1c0-0.7,0.5-1.2,1.2-1.2h16.7c0.3,0,0.5,0.1,0.7,0.4
				C468.9,43,469,43.3,469,43.6z"/>
		</g>
	</g>
</g>
</svg>
